<svg xmlns="http://www.w3.org/2000/svg" viewBox="0 0 375.85 213.49"><polygon points="8.2 0.69 32.57 0.69 30.27 10.07 18.59 10.07 17.44 15 29.62 15 27.5 23.7 15.48 23.7 12.59 36.05 0 36.05 8.2 0.69 8.2 0.69"/><polygon points="35.88 0.69 48.47 0.69 40.27 36.05 27.68 36.05 35.88 0.69 35.88 0.69"/><path d="M51.76.9l.81-.1A118.63,118.63,0,0,1,64.41,0C69,0,72.61.53,75.32,1.64A8.76,8.76,0,0,1,80.87,10a13.13,13.13,0,0,1-3.18,8.69c-1.79,2.07-3.41,3.08-6.76,4.08l-.8.27a6.65,6.65,0,0,1,.63.53c1,1.11,3.93,6.84,6.41,12.51H63.31C61.52,31,61,29.69,58.63,24L55.86,36.05H43.62L51.76.9Zm9.3,16.65c4,0,6.87-2.39,6.87-5.78,0-1.8-1.33-2.7-3.93-2.7a8.5,8.5,0,0,0-2,.21l-1.9,8.16a5,5,0,0,0,.92.11"/><polygon points="110.75 0.69 141.29 0.69 139.16 10.93 130.1 10.93 124.09 36.05 111.5 36.05 117.51 10.93 107.68 10.93 110.75 0.69 110.75 0.69"/><path d="M130,29.73a3.07,3.07,0,1,1,0,6.14,3.07,3.07,0,0,1,0-6.14m0,5.76a2.69,2.69,0,1,0-2.68-2.7,2.68,2.68,0,0,0,2.68,2.7m-1.19-4.26c.16,0,.18,0,.49-.05l.57,0c1,0,1.51.4,1.51,1.14a.83.83,0,0,1-.6.88h0l.06.06a10.76,10.76,0,0,1,.76,1.12h-1.16c-.23-.44-.3-.56-.6-1.06v1.06h-1V31.23Zm1.11,1.47c.27,0,.43-.13.43-.38s-.15-.37-.42-.37h-.13v.73h.12"/><path d="M103.72,17.23a26.67,26.67,0,0,0-6-3.5l-2.48-1.17c-.81-.42-1.21-.84-1.21-1.32C94,10,95.64,9,97.83,9c1.64,0,3.6.48,7.34,1.7l2.58-9.57A31.24,31.24,0,0,0,99.5,0C89.23,0,81.31,5.62,81.31,12.88c0,3.82,2.54,6.52,8.9,9.49,3,1.38,3.52,1.75,3.52,2.71,0,1.43-1.56,2.33-4.1,2.33-2.25,0-5.14-.69-9.07-2.12h0L77.8,35.15a39.59,39.59,0,0,0,11,1.64c4.91,0,8.66-1.11,11.9-3.44,3.58-2.55,5.89-6.47,5.89-10a7.84,7.84,0,0,0-2.89-6.1"/><path d="M360.42,169.21a3.67,3.67,0,0,1-1-.32,2.67,2.67,0,0,1-1.27-1.21,4.42,4.42,0,0,1-.43-1.92v-.26h1.9v.26a2.06,2.06,0,0,0,.53,1.48,2.17,2.17,0,0,0,1.61.5,2,2,0,0,0,1.42-.44,1.43,1.43,0,0,0,.44-1v-.09a1.21,1.21,0,0,0-.09-.48,1,1,0,0,0-.25-.37,2.52,2.52,0,0,0-.91-.47c-.38-.12-.77-.22-1.2-.32s-.75-.2-1.12-.32a3.81,3.81,0,0,1-1-.5,2.12,2.12,0,0,1-.73-.81,2.78,2.78,0,0,1-.28-1.3v-.08a3,3,0,0,1,.1-.74,2.44,2.44,0,0,1,.28-.67,2.69,2.69,0,0,1,1.14-1,4.11,4.11,0,0,1,1.94-.4,3.87,3.87,0,0,1,2.78.85,3.17,3.17,0,0,1,.92,2.28V162h-1.83v-.22a1.79,1.79,0,0,0-.49-1.23,2,2,0,0,0-1.41-.41,1.63,1.63,0,0,0-1.25.4,1.31,1.31,0,0,0-.38.94v0a1.11,1.11,0,0,0,.09.46,1,1,0,0,0,.25.35,2.16,2.16,0,0,0,.87.44l1.17.34a10.86,10.86,0,0,1,1.15.33,3.73,3.73,0,0,1,1,.5,2.26,2.26,0,0,1,.74.82,2.89,2.89,0,0,1,.27,1.33v.11a3.1,3.1,0,0,1-.1.81,3.38,3.38,0,0,1-.3.74,3,3,0,0,1-1.23,1.11,4.39,4.39,0,0,1-2,.42,7.39,7.39,0,0,1-1.3-.1" style="fill:#91d500"/><polygon points="368.59 161.62 368.59 169.11 366.88 169.11 366.88 158.85 368.54 158.85 371.38 163.13 374.21 158.86 375.85 158.86 375.85 169.11 374.17 169.11 374.17 161.54 373.87 162.09 371.49 165.6 371.19 165.6 368.81 162.06 368.59 161.62 368.59 161.62" style="fill:#91d500"/><polygon points="62.6 154.02 45.65 154.02 45.65 53.2 61.9 53.2 78 109.91 77.16 53.2 94.1 53.2 94.1 154.02 78.14 154.02 61.9 97.72 62.6 154.02 62.6 154.02" style="fill:#91d500"/><polygon points="337.34 112.01 375.85 112.01 375.85 94.22 337.34 94.22 337.34 112.01 337.34 112.01" style="fill:#91d500"/><polygon points="337.34 154.25 375.85 154.25 375.85 136.47 337.34 136.47 337.34 154.25 337.34 154.25" style="fill:#91d500"/><polygon points="337.34 70.98 375.85 70.98 375.85 53.2 337.34 53.2 337.34 70.98 337.34 70.98" style="fill:#91d500"/><polygon points="306 136.47 331.49 53.19 308.15 53.19 314.27 33.72 284.04 70.98 307.39 70.98 281.31 154.25 305.27 154.25 299.15 173.73 329.38 136.47 306 136.47 306 136.47" style="fill:#91d500"/><polygon points="102.78 112.01 141.29 112.01 141.29 94.22 102.78 94.22 102.78 112.01 102.78 112.01" style="fill:#91d500"/><polygon points="102.78 154.25 141.29 154.25 141.29 136.47 102.78 136.47 102.78 154.25 102.78 154.25" style="fill:#91d500"/><polygon points="102.78 70.98 141.29 70.98 141.29 53.2 102.78 53.2 102.78 70.98 102.78 70.98" style="fill:#91d500"/><polygon points="0 112.01 38.51 112.01 38.51 94.22 0 94.22 0 112.01 0 112.01" style="fill:#91d500"/><polygon points="0 154.25 38.51 154.25 38.51 136.47 0 136.47 0 154.25 0 154.25" style="fill:#91d500"/><polygon points="0 70.98 38.51 70.98 38.51 53.2 0 53.2 0 70.98 0 70.98" style="fill:#91d500"/><polygon points="276.1 53.19 257.61 53.19 257.61 154.25 259.4 154.25 275.84 154.25 276.1 154.25 276.1 100.92 276.1 70.98 262.13 70.98 276.1 53.76 276.1 53.19 276.1 53.19" style="fill:#91d500"/><path d="M175.32,95.27H166.5V69.16h8.82V95.27Zm9.6,11.21a15.87,15.87,0,0,0,8.28-14V69.06a15.87,15.87,0,0,0-15.87-15.87h-28.9V154H166.5V108.4h.92L180.71,154h18.06l-13.85-47.54Z" style="fill:#91d500"/><path d="M220.69,69.16h9.24V91.7h19.75V74.34q0-11.62-6.23-17t-17.86-5.4q-11.07,0-17.85,5.61T201,75.6v56.15q0,12.47,4.2,18T218,155.28q6.43,0,10.22-3.71c2.52-2.47,4.11-6.19,4.76-11.13L232.93,154h16.75V105H224.75v11.64h6.16v21H220.69V69.16Z" style="fill:#91d500"/><path d="M120.35,197.07h-1.42v2.13h1.42a1.07,1.07,0,1,0,0-2.13m.07,3.49h-1.49v2.93h-1.52v-7.78h3a2.43,2.43,0,1,1,0,4.85"/><path d="M127.77,197.07h-1.43v2.05h1.43a1,1,0,1,0,0-2.05m1.18,6.42-1.52-3.1h-1.09v3.1h-1.52v-7.78h3.05a2.35,2.35,0,0,1,2.52,2.39,2.09,2.09,0,0,1-1.42,2l1.74,3.35Z"/><polygon points="132.51 203.49 132.51 195.71 137.64 195.71 137.64 197.07 134.03 197.07 134.03 198.89 137.1 198.89 137.1 200.25 134.03 200.25 134.03 202.14 137.64 202.14 137.64 203.49 132.51 203.49 132.51 203.49"/><path d="M141.82,203.56a3.63,3.63,0,0,1-2.84-1l1-1a2.55,2.55,0,0,0,1.88.65c.89,0,1.37-.34,1.37-1a.83.83,0,0,0-.24-.65,1.11,1.11,0,0,0-.68-.28l-.94-.13a2.64,2.64,0,0,1-1.51-.64,2.07,2.07,0,0,1-.56-1.53c0-1.39,1-2.36,2.71-2.36a3.33,3.33,0,0,1,2.51.9l-1,.95A2.19,2.19,0,0,0,142,197c-.81,0-1.2.45-1.2,1a.75.75,0,0,0,.22.56,1.45,1.45,0,0,0,.73.31l.91.13a2.58,2.58,0,0,1,1.49.6,2.15,2.15,0,0,1,.6,1.65c0,1.51-1.26,2.36-2.88,2.36"/><polygon points="146.68 203.49 146.68 195.71 151.81 195.71 151.81 197.07 148.2 197.07 148.2 198.89 151.27 198.89 151.27 200.25 148.2 200.25 148.2 202.14 151.81 202.14 151.81 203.49 146.68 203.49 146.68 203.49"/><polygon points="158.44 203.49 155.36 198.72 155.36 203.49 153.84 203.49 153.84 195.71 155.2 195.71 158.28 200.48 158.28 195.71 159.8 195.71 159.8 203.49 158.44 203.49 158.44 203.49"/><polygon points="165.13 197.07 165.13 203.49 163.62 203.49 163.62 197.07 161.58 197.07 161.58 195.71 167.17 195.71 167.17 197.07 165.13 197.07 165.13 197.07"/><polygon points="168.95 203.49 168.95 195.71 174.07 195.71 174.07 197.07 170.47 197.07 170.47 198.89 173.54 198.89 173.54 200.25 170.47 200.25 170.47 202.14 174.07 202.14 174.07 203.49 168.95 203.49 168.95 203.49"/><path d="M179.91,197.55a1.34,1.34,0,0,0-1.13-.48h-1.15v5.07h1.15a1.36,1.36,0,0,0,1.13-.48c.29-.35.33-.91.33-2.09s0-1.67-.33-2m1.06,5.2a2.83,2.83,0,0,1-2.05.74h-2.81v-7.78h2.81a2.79,2.79,0,0,1,2.05.75c.88.87.79,1.94.79,3.11s.09,2.31-.79,3.18"  /><path d="M190.05,200.22h-1.59v1.92h1.59a1,1,0,1,0,0-1.92m-.1-3.15h-1.49v1.79H190a.88.88,0,0,0,1-.9c0-.53-.36-.89-1-.89m.25,6.42H187v-7.78h3.12a2.13,2.13,0,0,1,2.41,2.19,1.78,1.78,0,0,1-1,1.6,1.81,1.81,0,0,1,1.07,1.75,2.14,2.14,0,0,1-2.38,2.24"  /><polygon points="197.66 200.3 197.66 203.49 196.15 203.49 196.15 200.3 193.81 195.71 195.46 195.71 196.91 198.85 198.35 195.71 200 195.71 197.66 200.3 197.66 200.3" /><path d="M290.88,186.15a.74.74,0,0,1,.72.76v21.86a.74.74,0,0,1-.72.76h-1.95a.79.79,0,0,1-.76-.76V186.91a.79.79,0,0,1,.76-.76h1.95m25.59,20.6a5.16,5.16,0,1,1,4.85-5.15,4.9,4.9,0,0,1-4.85,5.15m0-13.5a8.36,8.36,0,1,0,8.32,8.35,8.24,8.24,0,0,0-8.32-8.35m-9.18,14a.69.69,0,0,1-.17,1.09A8.42,8.42,0,0,1,302,210c-4.92,0-8.19-3.6-8.19-8.36s3.27-8.39,8.19-8.39a8.35,8.35,0,0,1,5.08,1.59.71.71,0,0,1,.17,1.09l-.93,1.29a.76.76,0,0,1-1.15.13,5.84,5.84,0,0,0-3.07-1c-2.88,0-4.79,2.31-4.79,5.25s1.91,5.22,4.79,5.22a5.86,5.86,0,0,0,3-1c.36-.2.76-.36,1.16.17l1,1.25Zm-30.78-.49a4.92,4.92,0,0,1-4.85-5.19,4.86,4.86,0,1,1,9.71,0,5,5,0,0,1-4.86,5.19M284,193.68h-2a.77.77,0,0,0-.76.75v1.32a6.18,6.18,0,0,0-5.18-2.54,8.39,8.39,0,0,0,0,16.75,6.23,6.23,0,0,0,5.22-2.55v1.39a.77.77,0,0,0,.76.73h2a.73.73,0,0,0,.73-.73V194.43a.74.74,0,0,0-.73-.75m91.4,15a.54.54,0,0,1-.53.8h-2.18a.86.86,0,0,1-.86-.6l-4-10.83-4.09,10.83a.85.85,0,0,1-.86.6h-1.95a.85.85,0,0,1-.86-.6L356,198l-4.07,10.9a.87.87,0,0,1-.85.6H349a.88.88,0,0,1-.86-.6l-4-10.9-4.16,10.9a.84.84,0,0,1-.86.6h-1.95a.84.84,0,0,1-.85-.6L332.21,198l-4.06,10.9a.85.85,0,0,1-.86.6h-2.11a.54.54,0,0,1-.53-.8l5.52-14.43a.86.86,0,0,1,.86-.62h2.37a.86.86,0,0,1,.86.62l3.9,10.54,3.93-10.54a.86.86,0,0,1,.86-.62h2.34a.86.86,0,0,1,.86.62l3.9,10.54,3.89-10.54a.86.86,0,0,1,.86-.62h2.35a.85.85,0,0,1,.85.62l4,10.54,3.86-10.54a.86.86,0,0,1,.86-.62h2.37a.88.88,0,0,1,.87.62l5.51,14.43m-133.77-3.87-1.52-4a1,1,0,0,0-1-.63h-2a.65.65,0,0,0-.66,1l2,5.19a8.39,8.39,0,0,1-2.1.26c-4.89,0-8.35-3.84-8.35-8.85s3.46-8.85,8.35-8.85,8.36,3.83,8.36,8.85a9,9,0,0,1-3.11,7m-5.25-19.14a12.12,12.12,0,0,0,0,24.24,12.33,12.33,0,0,0,3.29-.45l1.3,3.38a.85.85,0,0,0,.89.6H244c.5,0,.86-.33.63-1l-1.69-4.42a12.18,12.18,0,0,0-6.5-22.39m28.73,8a.76.76,0,0,1,.76.75V208.8a.76.76,0,0,1-.76.73H263.2a.73.73,0,0,1-.72-.7v-1.32a5.9,5.9,0,0,1-5.15,2.45c-4.13,0-6.68-2.75-6.68-6.81V194.4a.77.77,0,0,1,.76-.72h2a.73.73,0,0,1,.73.72v8.19c0,2.64,1.39,4.39,4.13,4.39a4,4,0,0,0,4.26-4.36V194.4a.75.75,0,0,1,.72-.72h1.95"  /></svg>