<?xml version="1.0" encoding="UTF-8" standalone="no" ?>
<!DOCTYPE svg PUBLIC "-//W3C//DTD SVG 1.1//EN" "http://www.w3.org/Graphics/SVG/1.1/DTD/svg11.dtd">
<svg xmlns="http://www.w3.org/2000/svg" xmlns:xlink="http://www.w3.org/1999/xlink" version="1.1" width="1080" height="720" viewBox="0 0 1080 720" xml:space="preserve">
<desc>Created with Fabric.js 5.2.4</desc>
<defs>
</defs>
<rect x="0" y="0" width="100%" height="100%" fill="transparent"></rect>
<g transform="matrix(1 0 0 1 540 360)" id="bd893972-74dd-45a1-9b52-6d3cb6934463"  >
<rect style="stroke: none; stroke-width: 1; stroke-dasharray: none; stroke-linecap: butt; stroke-dashoffset: 0; stroke-linejoin: miter; stroke-miterlimit: 4; fill: rgb(255,255,255); fill-rule: nonzero; opacity: 1; visibility: hidden;" vector-effect="non-scaling-stroke"  x="-540" y="-360" rx="0" ry="0" width="1080" height="720" />
</g>
<g transform="matrix(Infinity NaN NaN Infinity 0 0)" id="06488fac-4433-4ebc-8d5f-2e302b6538e2"  >
</g>
<g transform="matrix(NaN NaN NaN NaN 0 0)"  >
<g style=""   >
</g>
</g>
<g transform="matrix(1.92 0 0 1.92 211.2 190.76)"  >
<polygon style="stroke: none; stroke-width: 1; stroke-dasharray: none; stroke-linecap: butt; stroke-dashoffset: 0; stroke-linejoin: miter; stroke-miterlimit: 4; fill: rgb(255,255,255); fill-rule: nonzero; opacity: 1;" vector-effect="non-scaling-stroke"  points="-8.09,-17.68 16.29,-17.68 13.98,-8.3 2.3,-8.3 1.16,-3.37 13.34,-3.37 11.21,5.33 -0.8,5.33 -3.7,17.68 -16.29,17.68 -8.09,-17.68 -8.09,-17.68 " />
</g>
<g transform="matrix(1.92 0 0 1.92 252.94 190.76)"  >
<polygon style="stroke: none; stroke-width: 1; stroke-dasharray: none; stroke-linecap: butt; stroke-dashoffset: 0; stroke-linejoin: miter; stroke-miterlimit: 4; fill: rgb(255,255,255); fill-rule: nonzero; opacity: 1;" vector-effect="non-scaling-stroke"  points="-2.2,-17.68 10.39,-17.68 2.2,17.68 -10.4,17.68 -2.2,-17.68 -2.2,-17.68 " />
</g>
<g transform="matrix(1.92 0 0 1.92 299.24 190.13)"  >
<path style="stroke: none; stroke-width: 1; stroke-dasharray: none; stroke-linecap: butt; stroke-dashoffset: 0; stroke-linejoin: miter; stroke-miterlimit: 4; fill: rgb(255,255,255); fill-rule: nonzero; opacity: 1;" vector-effect="non-scaling-stroke"  transform=" translate(-62.25, -18.04)" d="M 51.76 0.9 L 52.57 0.8 C 56.5008490684199 0.33597690019487036 60.452458577383624 0.06897625769729787 64.41 -2.55351295663786e-14 C 69 0 72.61 0.53 75.32 1.64 C 78.74090148094912 2.9860607475131324 80.95743551033078 6.3248399341132435 80.87 10 C 80.89967939524988 13.186588741002442 79.76943387349216 16.275215654233428 77.69 18.69 C 75.89999999999999 20.759999999999998 74.28 21.769999999999996 70.92999999999999 22.769999999999996 L 70.13 23.039999999999996 C 70.35074482281206 23.203485374985167 70.5611479302725 23.380491163801093 70.75999999999999 23.569999999999997 C 71.75999999999999 24.679999999999996 74.69 30.409999999999997 77.16999999999999 36.08 L 63.31 36.08 C 61.52 31 61 29.69 58.63 24 L 55.86 36.05 L 43.62 36.05 L 51.76 0.9 Z M 61.06 17.549999999999997 C 65.06 17.549999999999997 67.93 15.159999999999997 67.93 11.769999999999996 C 67.93 9.969999999999995 66.60000000000001 9.069999999999997 64 9.069999999999997 C 63.327372293476046 9.060613009546891 62.65600822735775 9.131106236489313 62 9.279999999999998 L 60.1 17.439999999999998 C 60.402600959692045 17.505063162910982 60.710589674031155 17.541887900495006 61.02 17.549999999999997" stroke-linecap="round" />
</g>
<g transform="matrix(1.92 0 0 1.92 418.47 190.76)"  >
<polygon style="stroke: none; stroke-width: 1; stroke-dasharray: none; stroke-linecap: butt; stroke-dashoffset: 0; stroke-linejoin: miter; stroke-miterlimit: 4; fill: rgb(255,255,255); fill-rule: nonzero; opacity: 1;" vector-effect="non-scaling-stroke"  points="-13.73,-17.68 16.8,-17.68 14.67,-7.44 5.61,-7.44 -0.39,17.68 -12.98,17.68 -6.97,-7.44 -16.8,-7.44 -13.73,-17.68 -13.73,-17.68 " />
</g>
<g transform="matrix(1.92 0 0 1.92 429.04 218.4)"  >
<path style="stroke: none; stroke-width: 1; stroke-dasharray: none; stroke-linecap: butt; stroke-dashoffset: 0; stroke-linejoin: miter; stroke-miterlimit: 4; fill: rgb(255,255,255); fill-rule: nonzero; opacity: 1;" vector-effect="non-scaling-stroke"  transform=" translate(-130, -32.8)" d="M 130 29.73 C 131.09680538367218 29.729999966018813 132.1102953672348 30.315138652938646 132.65869806888043 31.264999972542768 C 133.20710077052604 32.214861292146885 133.20710077052604 33.38513870785311 132.65869806888043 34.33500002745723 C 132.1102953672348 35.284861347061344 131.09680538367218 35.870000033981185 130 35.87 C 128.30448581801946 35.87 126.93 34.49551418198053 126.93 32.8 C 126.93 31.104485818019462 128.30448581801946 29.729999999999997 130 29.729999999999997 M 130 35.489999999999995 C 131.48563091058654 35.49551252593587 132.69444340998413 34.295643138470425 132.69996277952774 32.81001225329327 C 132.70548214907134 31.32438136811613 131.5056183300533 30.115563341493456 130.01998747031706 30.110037128342224 C 128.53435661058083 30.104510915190993 127.32553305675873 31.304369165736215 127.32 32.78999999999999 C 127.31466970849476 33.50423913516832 127.59467117394831 34.19105691389504 128.097847560124 34.69798834772875 C 128.6010239462997 35.20491978156247 129.28574097568324 35.49001988942536 130 35.489999999999995 M 128.81 31.229999999999997 C 128.97 31.229999999999997 128.99 31.229999999999997 129.3 31.179999999999996 L 129.87 31.179999999999996 C 130.87 31.179999999999996 131.38 31.579999999999995 131.38 32.31999999999999 C 131.41939052464116 32.719900697732854 131.16665247727187 33.09058316720784 130.78 33.199999999999996 L 130.78 33.199999999999996 L 130.84 33.26 C 131.11658660169974 33.61701403919221 131.37042200420828 33.991087263941644 131.6 34.379999999999995 L 130.44 34.379999999999995 C 130.21 33.94 130.14 33.81999999999999 129.84 33.31999999999999 L 129.84 34.379999999999995 L 128.84 34.379999999999995 L 128.84 31.23 Z M 129.92000000000002 32.699999999999996 C 130.19000000000003 32.699999999999996 130.35000000000002 32.56999999999999 130.35000000000002 32.31999999999999 C 130.35000000000002 32.06999999999999 130.20000000000002 31.949999999999992 129.93000000000004 31.949999999999992 L 129.80000000000004 31.949999999999992 L 129.80000000000004 32.67999999999999 L 129.92000000000004 32.67999999999999" stroke-linecap="round" />
</g>
<g transform="matrix(1.92 0 0 1.92 357.73 190.81)"  >
<path style="stroke: none; stroke-width: 1; stroke-dasharray: none; stroke-linecap: butt; stroke-dashoffset: 0; stroke-linejoin: miter; stroke-miterlimit: 4; fill: rgb(255,255,255); fill-rule: nonzero; opacity: 1;" vector-effect="non-scaling-stroke"  transform=" translate(-92.78, -18.39)" d="M 103.72 17.23 C 101.88113126116582 15.806757542036435 99.86402727008874 14.630113547241471 97.72 13.730000000000004 L 95.24 12.56 C 94.42999999999999 12.14 94.03 11.72 94.03 11.24 C 94 10 95.64 9 97.83 9 C 99.47 9 101.42999999999999 9.48 105.17 10.7 L 107.75 1.129999999999999 C 105.06274642741805 0.3868723287966841 102.28810398743882 0.006830394593466904 99.5 0 C 89.23 0 81.31 5.62 81.31 12.88 C 81.31 16.7 83.85000000000001 19.4 90.21000000000001 22.37 C 93.21000000000001 23.75 93.73 24.12 93.73 25.080000000000002 C 93.73 26.51 92.17 27.410000000000004 89.63000000000001 27.410000000000004 C 87.38000000000001 27.410000000000004 84.49000000000001 26.720000000000002 80.56 25.290000000000003 L 80.56 25.290000000000003 L 77.8 35.15 C 81.37123422008727 36.211527149588704 85.07443173371588 36.76364023343879 88.79999999999998 36.79 C 93.71 36.79 97.46 35.68 100.7 33.35 C 104.28 30.8 106.59 26.880000000000003 106.59 23.35 C 106.59610906009996 20.98483226914294 105.53414237930247 18.74331090136969 103.7 17.25" stroke-linecap="round" />
</g>
<g transform="matrix(1.92 0 0 1.92 872.61 469.71)"  >
<path style="stroke: none; stroke-width: 1; stroke-dasharray: none; stroke-linecap: butt; stroke-dashoffset: 0; stroke-linejoin: miter; stroke-miterlimit: 4; fill: rgb(145,213,0); fill-rule: nonzero; opacity: 1;" vector-effect="non-scaling-stroke"  transform=" translate(-361.55, -163.99)" d="M 360.42 169.21 C 360.073052475821 169.1518128448841 359.7362734733103 169.04404356408068 359.42 168.89000000000001 C 358.87247569673553 168.64120646822488 358.4249800639856 168.21485236143158 358.15000000000003 167.68 C 357.86422998922166 167.08043657189216 357.71725555750044 166.42417864420656 357.72 165.76000000000002 L 357.72 165.50000000000003 L 359.62 165.50000000000003 L 359.62 165.76000000000002 C 359.59408277886365 166.3039971824405 359.7846409931726 166.8361220073033 360.15 167.24 C 360.5973469665612 167.61684062339623 361.1778794785367 167.79713022338862 361.76 167.74 C 362.27228537058966 167.78123051099135 362.78078184299727 167.62366822376646 363.18 167.3 C 363.4532380113478 167.03803931587134 363.6114659268747 166.67843041694658 363.62 166.3 L 363.62 166.21 C 363.6229359917908 166.04554599348165 363.592312356974 165.882219941125 363.53000000000003 165.73000000000002 C 363.47562071000334 165.58939948552853 363.3901568505591 165.46291297355097 363.28000000000003 165.36 C 363.0120374899109 165.14269308843652 362.7023080727145 164.98272294988453 362.37 164.89000000000001 C 361.99 164.77 361.6 164.67000000000002 361.17 164.57000000000002 C 360.74 164.47000000000003 360.42 164.37000000000003 360.05 164.25000000000003 C 359.6938932430832 164.13341407840403 359.3569327914269 163.96493385257585 359.05 163.75000000000003 C 358.7402044976847 163.54826746076398 358.4885467577925 163.26903079047267 358.32 162.94000000000003 C 358.12287243749944 162.53569938591457 358.0267903570054 162.08960401219213 358.04 161.64000000000001 L 358.04 161.56 C 358.0423847046147 161.31013128268907 358.075978204876 161.0615393807556 358.14000000000004 160.82 C 358.19939239153587 160.58395087357653 358.29377062171426 160.3581172513638 358.42 160.15 C 358.69623697571615 159.71423848663463 359.09196345086207 159.3671099996645 359.56 159.15 C 360.1643856537308 158.860500256623 360.83039358153087 158.72317903439617 361.5 158.75 C 362.50191561793474 158.66129872846122 363.49900408022853 158.96616390578126 364.28 159.6 C 364.8809042156181 160.20528625448162 365.21254603155916 161.0271811896398 365.2 161.88 L 365.2 162 L 363.37 162 L 363.37 161.78 C 363.3698753147554 161.3224426776144 363.1945355944234 160.8823041959648 362.88 160.55 C 362.4789859636472 160.23949877113438 361.97498426258073 160.0929450850087 361.46999999999997 160.14000000000001 C 361.0156911604724 160.0922865785551 360.5622088394731 160.23740092127485 360.21999999999997 160.54000000000002 C 359.9722970610372 160.78962668044872 359.8353611751277 161.12836281927756 359.84 161.48000000000002 L 359.84 161.48000000000002 C 359.8369147567122 161.63799159798563 359.8675987650328 161.7948209738469 359.92999999999995 161.94000000000003 C 359.98695971516315 162.07341924521663 360.07226602701013 162.19284808180242 360.17999999999995 162.29000000000002 C 360.4326781307801 162.5010523930465 360.73025744010005 162.65155227362212 361.04999999999995 162.73000000000002 L 362.21999999999997 163.07000000000002 C 362.60910589215393 163.15878509123527 362.993021660636 163.26895222479968 363.36999999999995 163.40000000000003 C 363.72656052519517 163.5154795706523 364.063680028361 163.6840393222352 364.36999999999995 163.90000000000003 C 364.68069156997984 164.10792141472086 364.93495154018706 164.38966894927484 365.10999999999996 164.72000000000003 C 365.30429333086045 165.1356173083779 365.3968450093725 165.59152002104855 365.37999999999994 166.05000000000004 L 365.37999999999994 166.16000000000005 C 365.3825096474948 166.43322717000567 365.34888497941347 166.70558698146462 365.2799999999999 166.97000000000006 C 365.20959015386353 167.22765380314394 365.1088876144978 167.476053400246 364.9799999999999 167.71000000000006 C 364.6823237886323 168.18812396766413 364.25606658879974 168.57279509922034 363.7499999999999 168.82000000000008 C 363.12565599117534 169.115383947096 362.4404239975247 169.25928266576264 361.7499999999999 169.24000000000007 C 361.3145667355785 169.24503360274664 360.879540675008 169.21157005962584 360.4499999999999 169.14000000000007" stroke-linecap="round" />
</g>
<g transform="matrix(1.92 0 0 1.92 891.41 469.7)"  >
<polygon style="stroke: none; stroke-width: 1; stroke-dasharray: none; stroke-linecap: butt; stroke-dashoffset: 0; stroke-linejoin: miter; stroke-miterlimit: 4; fill: rgb(145,213,0); fill-rule: nonzero; opacity: 1;" vector-effect="non-scaling-stroke"  points="-2.78,-2.36 -2.78,5.13 -4.49,5.13 -4.49,-5.13 -2.82,-5.13 0.01,-0.85 2.84,-5.12 4.49,-5.12 4.49,5.13 2.81,5.13 2.81,-2.44 2.5,-1.89 0.13,1.62 -0.18,1.62 -2.56,-1.92 -2.78,-2.36 -2.78,-2.36 " />
</g>
<g transform="matrix(1.92 0 0 1.92 313.86 354.05)"  >
<polygon style="stroke: none; stroke-width: 1; stroke-dasharray: none; stroke-linecap: butt; stroke-dashoffset: 0; stroke-linejoin: miter; stroke-miterlimit: 4; fill: rgb(145,213,0); fill-rule: nonzero; opacity: 1;" vector-effect="non-scaling-stroke"  points="-7.27,50.41 -24.23,50.41 -24.23,-50.41 -7.98,-50.41 8.13,6.3 7.28,-50.41 24.22,-50.41 24.22,50.41 8.27,50.41 -7.98,-5.89 -7.27,50.41 -7.27,50.41 " />
</g>
<g transform="matrix(1.92 0 0 1.92 863.11 353.1)"  >
<polygon style="stroke: none; stroke-width: 1; stroke-dasharray: none; stroke-linecap: butt; stroke-dashoffset: 0; stroke-linejoin: miter; stroke-miterlimit: 4; fill: rgb(145,213,0); fill-rule: nonzero; opacity: 1;" vector-effect="non-scaling-stroke"  points="-19.26,8.89 19.25,8.89 19.25,-8.9 -19.26,-8.9 -19.26,8.89 -19.26,8.89 " />
</g>
<g transform="matrix(1.92 0 0 1.92 863.11 434.03)"  >
<polygon style="stroke: none; stroke-width: 1; stroke-dasharray: none; stroke-linecap: butt; stroke-dashoffset: 0; stroke-linejoin: miter; stroke-miterlimit: 4; fill: rgb(145,213,0); fill-rule: nonzero; opacity: 1;" vector-effect="non-scaling-stroke"  points="-19.26,8.89 19.25,8.89 19.25,-8.89 -19.26,-8.89 -19.26,8.89 -19.26,8.89 " />
</g>
<g transform="matrix(1.92 0 0 1.92 863.11 274.51)"  >
<polygon style="stroke: none; stroke-width: 1; stroke-dasharray: none; stroke-linecap: butt; stroke-dashoffset: 0; stroke-linejoin: miter; stroke-miterlimit: 4; fill: rgb(145,213,0); fill-rule: nonzero; opacity: 1;" vector-effect="non-scaling-stroke"  points="-19.26,8.89 19.25,8.89 19.25,-8.89 -19.26,-8.89 -19.26,8.89 -19.26,8.89 " />
</g>
<g transform="matrix(1.92 0 0 1.92 766.96 354.27)"  >
<polygon style="stroke: none; stroke-width: 1; stroke-dasharray: none; stroke-linecap: butt; stroke-dashoffset: 0; stroke-linejoin: miter; stroke-miterlimit: 4; fill: rgb(145,213,0); fill-rule: nonzero; opacity: 1;" vector-effect="non-scaling-stroke"  points="-0.4,32.75 25.09,-50.53 1.75,-50.53 7.87,-70 -22.36,-32.74 0.99,-32.74 -25.09,50.53 -1.13,50.53 -7.25,70 22.98,32.75 -0.4,32.75 -0.4,32.75 " />
</g>
<g transform="matrix(1.92 0 0 1.92 413.78 353.1)"  >
<polygon style="stroke: none; stroke-width: 1; stroke-dasharray: none; stroke-linecap: butt; stroke-dashoffset: 0; stroke-linejoin: miter; stroke-miterlimit: 4; fill: rgb(145,213,0); fill-rule: nonzero; opacity: 1;" vector-effect="non-scaling-stroke"  points="-19.25,8.89 19.25,8.89 19.25,-8.9 -19.25,-8.9 -19.25,8.89 -19.25,8.89 " />
</g>
<g transform="matrix(1.92 0 0 1.92 413.78 434.03)"  >
<polygon style="stroke: none; stroke-width: 1; stroke-dasharray: none; stroke-linecap: butt; stroke-dashoffset: 0; stroke-linejoin: miter; stroke-miterlimit: 4; fill: rgb(145,213,0); fill-rule: nonzero; opacity: 1;" vector-effect="non-scaling-stroke"  points="-19.25,8.89 19.25,8.89 19.25,-8.89 -19.25,-8.89 -19.25,8.89 -19.25,8.89 " />
</g>
<g transform="matrix(1.92 0 0 1.92 413.78 274.51)"  >
<polygon style="stroke: none; stroke-width: 1; stroke-dasharray: none; stroke-linecap: butt; stroke-dashoffset: 0; stroke-linejoin: miter; stroke-miterlimit: 4; fill: rgb(145,213,0); fill-rule: nonzero; opacity: 1;" vector-effect="non-scaling-stroke"  points="-19.25,8.89 19.25,8.89 19.25,-8.89 -19.25,-8.89 -19.25,8.89 -19.25,8.89 " />
</g>
<g transform="matrix(1.92 0 0 1.92 216.89 353.1)"  >
<polygon style="stroke: none; stroke-width: 1; stroke-dasharray: none; stroke-linecap: butt; stroke-dashoffset: 0; stroke-linejoin: miter; stroke-miterlimit: 4; fill: rgb(145,213,0); fill-rule: nonzero; opacity: 1;" vector-effect="non-scaling-stroke"  points="-19.25,8.89 19.25,8.89 19.25,-8.9 -19.25,-8.9 -19.25,8.89 -19.25,8.89 " />
</g>
<g transform="matrix(1.92 0 0 1.92 216.89 434.03)"  >
<polygon style="stroke: none; stroke-width: 1; stroke-dasharray: none; stroke-linecap: butt; stroke-dashoffset: 0; stroke-linejoin: miter; stroke-miterlimit: 4; fill: rgb(145,213,0); fill-rule: nonzero; opacity: 1;" vector-effect="non-scaling-stroke"  points="-19.25,8.89 19.25,8.89 19.25,-8.89 -19.25,-8.89 -19.25,8.89 -19.25,8.89 " />
</g>
<g transform="matrix(1.92 0 0 1.92 216.89 274.51)"  >
<polygon style="stroke: none; stroke-width: 1; stroke-dasharray: none; stroke-linecap: butt; stroke-dashoffset: 0; stroke-linejoin: miter; stroke-miterlimit: 4; fill: rgb(145,213,0); fill-rule: nonzero; opacity: 1;" vector-effect="non-scaling-stroke"  points="-19.25,8.89 19.25,8.89 19.25,-8.89 -19.25,-8.89 -19.25,8.89 -19.25,8.89 " />
</g>
<g transform="matrix(1.92 0 0 1.92 691.2 354.26)"  >
<polygon style="stroke: none; stroke-width: 1; stroke-dasharray: none; stroke-linecap: butt; stroke-dashoffset: 0; stroke-linejoin: miter; stroke-miterlimit: 4; fill: rgb(145,213,0); fill-rule: nonzero; opacity: 1;" vector-effect="non-scaling-stroke"  points="9.25,-50.53 -9.25,-50.53 -9.25,50.53 -7.46,50.53 8.98,50.53 9.25,50.53 9.25,-2.8 9.25,-32.74 -4.73,-32.74 9.25,-49.96 9.25,-50.53 9.25,-50.53 " />
</g>
<g transform="matrix(1.92 0 0 1.92 512.56 354.02)"  >
<path style="stroke: none; stroke-width: 1; stroke-dasharray: none; stroke-linecap: butt; stroke-dashoffset: 0; stroke-linejoin: miter; stroke-miterlimit: 4; fill: rgb(145,213,0); fill-rule: nonzero; opacity: 1;" vector-effect="non-scaling-stroke"  transform=" translate(-173.6, -103.59)" d="M 175.32 95.27 L 166.5 95.27 L 166.5 69.16 L 175.32 69.16 L 175.32 95.27 Z M 184.92 106.47999999999999 C 190.04343182983274 103.68993448515725 193.22301783244708 98.31382288653396 193.2 92.47999999999999 L 193.2 69.06 C 193.2 60.29524102018531 186.09475897981469 53.190000000000005 177.32999999999998 53.190000000000005 L 148.42999999999998 53.190000000000005 L 148.42999999999998 154 L 166.5 154 L 166.5 108.4 L 167.42 108.4 L 180.71 154 L 198.77 154 L 184.92000000000002 106.46000000000001 Z" stroke-linecap="round" />
</g>
<g transform="matrix(1.92 0 0 1.92 611.67 354.05)"  >
<path style="stroke: none; stroke-width: 1; stroke-dasharray: none; stroke-linecap: butt; stroke-dashoffset: 0; stroke-linejoin: miter; stroke-miterlimit: 4; fill: rgb(145,213,0); fill-rule: nonzero; opacity: 1;" vector-effect="non-scaling-stroke"  transform=" translate(-225.34, -103.61)" d="M 220.69 69.16 L 229.93 69.16 L 229.93 91.7 L 249.68 91.7 L 249.68 74.34 Q 249.68 62.720000000000006 243.45000000000002 57.34 Q 237.22000000000003 51.96 225.59000000000003 51.940000000000005 Q 214.52000000000004 51.940000000000005 207.74000000000004 57.550000000000004 Q 200.96000000000004 63.160000000000004 201 75.6 L 201 131.75 Q 201 144.22 205.2 149.75 Q 209.39999999999998 155.28 218 155.28 Q 224.43 155.28 228.22 151.57 C 230.74 149.1 232.33 145.38 232.98 140.44 L 232.93 154 L 249.68 154 L 249.68 105 L 224.75 105 L 224.75 116.64 L 230.91 116.64 L 230.91 137.64 L 220.69 137.64 L 220.69 69.16 Z" stroke-linecap="round" />
</g>
<g transform="matrix(1.92 0 0 1.92 410.27 537.93)"  >
<path style="stroke: none; stroke-width: 1; stroke-dasharray: none; stroke-linecap: butt; stroke-dashoffset: 0; stroke-linejoin: miter; stroke-miterlimit: 4; fill: rgb(255,255,255); fill-rule: nonzero; opacity: 1;" vector-effect="non-scaling-stroke"  transform=" translate(-120.2, -199.6)" d="M 120.35 197.07 L 118.92999999999999 197.07 L 118.92999999999999 199.2 L 120.35 199.2 C 120.75512806572277 199.2393030871682 121.14747088862018 199.04534492124225 121.36224174746515 198.69958928428426 C 121.57701260631012 198.35383364732624 121.57701260631012 197.91616635267374 121.36224174746515 197.57041071571572 C 121.14747088862018 197.22465507875773 120.75512806572279 197.0306969128318 120.35 197.07 M 120.41999999999999 200.56 L 118.92999999999999 200.56 L 118.92999999999999 203.49 L 117.41 203.49 L 117.41 195.71 L 120.41 195.71 C 121.31353505454024 195.65194857526427 122.17441788041822 196.1010363525543 122.64378158561287 196.8752735739166 C 123.11314529080754 197.6495107952789 123.11314529080754 198.6204892047211 122.64378158561287 199.39472642608342 C 122.17441788041822 200.1689636474457 121.31353505454024 200.61805142473574 120.41 200.56" stroke-linecap="round" />
</g>
<g transform="matrix(1.92 0 0 1.92 424.75 537.93)"  >
<path style="stroke: none; stroke-width: 1; stroke-dasharray: none; stroke-linecap: butt; stroke-dashoffset: 0; stroke-linejoin: miter; stroke-miterlimit: 4; fill: rgb(255,255,255); fill-rule: nonzero; opacity: 1;" vector-effect="non-scaling-stroke"  transform=" translate(-127.77, -199.6)" d="M 127.77 197.07 L 126.33999999999999 197.07 L 126.33999999999999 199.12 L 127.77 199.12 C 128.33609186857657 199.12 128.79500000000002 198.66109186857656 128.79500000000002 198.095 C 128.79500000000002 197.52890813142344 128.33609186857657 197.07 127.77 197.07 M 128.95 203.48999999999998 L 127.42999999999999 200.39 L 126.33999999999999 200.39 L 126.33999999999999 203.48999999999998 L 124.82 203.48999999999998 L 124.82 195.70999999999998 L 127.86999999999999 195.70999999999998 C 128.52916835365076 195.662061869334 129.1780533270833 195.89390986316488 129.65759204856064 196.3487104759946 C 130.137130770038 196.8035110888243 130.40299037401988 197.43921846801737 130.39 198.09999999999997 C 130.3987632714671 199.00353064004614 129.82590001674495 199.81038029458435 128.97 200.09999999999997 L 130.71 203.44999999999996 Z" stroke-linecap="round" />
</g>
<g transform="matrix(1.92 0 0 1.92 438.76 537.93)"  >
<polygon style="stroke: none; stroke-width: 1; stroke-dasharray: none; stroke-linecap: butt; stroke-dashoffset: 0; stroke-linejoin: miter; stroke-miterlimit: 4; fill: rgb(255,255,255); fill-rule: nonzero; opacity: 1;" vector-effect="non-scaling-stroke"  points="-2.56,3.89 -2.56,-3.89 2.56,-3.89 2.56,-2.53 -1.04,-2.53 -1.04,-0.71 2.03,-0.71 2.03,0.65 -1.04,0.65 -1.04,2.54 2.56,2.54 2.56,3.89 -2.56,3.89 -2.56,3.89 " />
</g>
<g transform="matrix(1.92 0 0 1.92 451.77 537.95)"  >
<path style="stroke: none; stroke-width: 1; stroke-dasharray: none; stroke-linecap: butt; stroke-dashoffset: 0; stroke-linejoin: miter; stroke-miterlimit: 4; fill: rgb(255,255,255); fill-rule: nonzero; opacity: 1;" vector-effect="non-scaling-stroke"  transform=" translate(-141.87, -199.61)" d="M 141.82 203.56 C 140.7732083692487 203.65350236786276 139.73727116757587 203.28873574755545 138.98 202.56 L 139.98 201.56 C 140.49283405550634 202.02223526469663 141.17118014500016 202.25676981691524 141.85999999999999 202.21 C 142.74999999999997 202.21 143.23 201.87 143.23 201.21 C 143.24858850821997 200.96870552863828 143.16093693337706 200.73131584677205 142.98999999999998 200.56 C 142.8017334457587 200.39211180607688 142.56189752417632 200.2933558383665 142.30999999999997 200.28 L 141.36999999999998 200.15 C 140.81148634006212 200.10238243973717 140.28262520778887 199.8782293770518 139.85999999999999 199.51000000000002 C 139.47203667166508 199.09799159788795 139.26967396584135 198.54510777661952 139.29999999999998 197.98000000000002 C 139.29999999999998 196.59000000000003 140.29999999999998 195.62 142.01 195.62 C 142.93550118569547 195.55730586965032 143.84520752469484 195.88349539359433 144.51999999999998 196.52 L 143.51999999999998 197.47 C 143.09016975776197 197.1283219724411 142.54767110059353 196.96057567713245 142 197 C 141.19 197 140.8 197.45 140.8 198 C 140.79196437724852 198.20918980950728 140.87172536956828 198.41221778995757 141.02 198.56 C 141.22979610296707 198.7291655821563 141.4825861999047 198.83651480140378 141.75 198.87 L 142.66 199 C 143.20785825402942 199.0363574831949 143.72983089094507 199.2465478067851 144.15 199.6 C 144.57568624318617 200.03955936159483 144.79391118039564 200.63967793892087 144.75 201.25 C 144.75 202.76 143.49 203.61 141.87 203.61" stroke-linecap="round" />
</g>
<g transform="matrix(1.92 0 0 1.92 465.9 537.93)"  >
<polygon style="stroke: none; stroke-width: 1; stroke-dasharray: none; stroke-linecap: butt; stroke-dashoffset: 0; stroke-linejoin: miter; stroke-miterlimit: 4; fill: rgb(255,255,255); fill-rule: nonzero; opacity: 1;" vector-effect="non-scaling-stroke"  points="-2.56,3.89 -2.56,-3.89 2.56,-3.89 2.56,-2.53 -1.05,-2.53 -1.05,-0.71 2.03,-0.71 2.03,0.65 -1.05,0.65 -1.05,2.54 2.56,2.54 2.56,3.89 -2.56,3.89 -2.56,3.89 " />
</g>
<g transform="matrix(1.92 0 0 1.92 480.41 537.93)"  >
<polygon style="stroke: none; stroke-width: 1; stroke-dasharray: none; stroke-linecap: butt; stroke-dashoffset: 0; stroke-linejoin: miter; stroke-miterlimit: 4; fill: rgb(255,255,255); fill-rule: nonzero; opacity: 1;" vector-effect="non-scaling-stroke"  points="1.62,3.89 -1.46,-0.88 -1.46,3.89 -2.98,3.89 -2.98,-3.89 -1.62,-3.89 1.46,0.88 1.46,-3.89 2.98,-3.89 2.98,3.89 1.62,3.89 1.62,3.89 " />
</g>
<g transform="matrix(1.92 0 0 1.92 494.89 537.93)"  >
<polygon style="stroke: none; stroke-width: 1; stroke-dasharray: none; stroke-linecap: butt; stroke-dashoffset: 0; stroke-linejoin: miter; stroke-miterlimit: 4; fill: rgb(255,255,255); fill-rule: nonzero; opacity: 1;" vector-effect="non-scaling-stroke"  points="0.75,-2.53 0.75,3.89 -0.75,3.89 -0.75,-2.53 -2.79,-2.53 -2.79,-3.89 2.79,-3.89 2.79,-2.53 0.75,-2.53 0.75,-2.53 " />
</g>
<g transform="matrix(1.92 0 0 1.92 508.55 537.93)"  >
<polygon style="stroke: none; stroke-width: 1; stroke-dasharray: none; stroke-linecap: butt; stroke-dashoffset: 0; stroke-linejoin: miter; stroke-miterlimit: 4; fill: rgb(255,255,255); fill-rule: nonzero; opacity: 1;" vector-effect="non-scaling-stroke"  points="-2.56,3.89 -2.56,-3.89 2.56,-3.89 2.56,-2.53 -1.04,-2.53 -1.04,-0.71 2.03,-0.71 2.03,0.65 -1.04,0.65 -1.04,2.54 2.56,2.54 2.56,3.89 -2.56,3.89 -2.56,3.89 " />
</g>
<g transform="matrix(1.92 0 0 1.92 522.78 537.97)"  >
<path style="stroke: none; stroke-width: 1; stroke-dasharray: none; stroke-linecap: butt; stroke-dashoffset: 0; stroke-linejoin: miter; stroke-miterlimit: 4; fill: rgb(255,255,255); fill-rule: nonzero; opacity: 1;" vector-effect="non-scaling-stroke"  transform=" translate(-178.94, -199.62)" d="M 179.91 197.55 C 179.63309626000765 197.2167087664585 179.21211974659843 197.03788688465636 178.78 197.07000000000002 L 177.63 197.07000000000002 L 177.63 202.14000000000001 L 178.78 202.14000000000001 C 179.21156440195352 202.1687911609625 179.63109102684783 201.9905851610074 179.91 201.66000000000003 C 180.2 201.31000000000003 180.24 200.75000000000003 180.24 199.57000000000002 C 180.24 198.39000000000001 180.24 197.90000000000003 179.91 197.57000000000002 M 180.97 202.77 C 180.41286126823033 203.28045509872982 179.67472245222018 203.54690520792371 178.92 203.51000000000002 L 176.10999999999999 203.51000000000002 L 176.10999999999999 195.73000000000002 L 178.92 195.73000000000002 C 179.6768330244636 195.6912119741126 180.41688372939268 195.9619622320135 180.97 196.48000000000002 C 181.85 197.35000000000002 181.76 198.42000000000002 181.76 199.59000000000003 C 181.76 200.76000000000005 181.85 201.90000000000003 180.97 202.77000000000004" stroke-linecap="round" />
</g>
<g transform="matrix(1.92 0 0 1.92 543.59 537.93)"  >
<path style="stroke: none; stroke-width: 1; stroke-dasharray: none; stroke-linecap: butt; stroke-dashoffset: 0; stroke-linejoin: miter; stroke-miterlimit: 4; fill: rgb(255,255,255); fill-rule: nonzero; opacity: 1;" vector-effect="non-scaling-stroke"  transform=" translate(-189.8, -199.6)" d="M 190.05 200.22 L 188.46 200.22 L 188.46 202.14 L 190.05 202.14 C 190.4587471174788 202.25921790926463 190.89815797998727 202.10654391461682 191.14492484856598 201.7595666408531 C 191.3916917171447 201.41258936708937 191.3916917171447 200.94741063291062 191.14492484856598 200.60043335914688 C 190.89815797998727 200.25345608538316 190.4587471174788 200.10078209073535 190.05 200.22 M 189.95000000000002 197.07 L 188.46 197.07 L 188.46 198.85999999999999 L 190 198.85999999999999 C 190.25689969925418 198.89549862196253 190.5163771459311 198.8158715521849 190.7091435829672 198.64238175885242 C 190.90191002000324 198.46889196551996 191.0083351252344 198.2192067385803 191 197.95999999999998 C 191 197.42999999999998 190.64 197.07 190 197.07 M 190.25 203.48999999999998 L 187 203.48999999999998 L 187 195.70999999999998 L 190.12 195.70999999999998 C 190.7422236557261 195.62705338843853 191.36935272207256 195.82279490960255 191.83392102534287 196.244954488093 C 192.29848932861316 196.66711406658342 192.55318680359912 197.27270039833144 192.53 197.89999999999998 C 192.53 198.58066304401618 192.14183194967748 199.2017319245322 191.53 199.49999999999997 C 192.21467782996868 199.8054361622263 192.6401862858797 200.50136120694063 192.6 201.24999999999997 C 192.63350245650798 201.8788717761676 192.38830459440953 202.49057500388395 191.9297107838996 202.9221927078933 C 191.47111697338966 203.35381041190263 190.8456892938907 203.56151945863093 190.22 203.48999999999998" stroke-linecap="round" />
</g>
<g transform="matrix(1.92 0 0 1.92 557.2 537.93)"  >
<polygon style="stroke: none; stroke-width: 1; stroke-dasharray: none; stroke-linecap: butt; stroke-dashoffset: 0; stroke-linejoin: miter; stroke-miterlimit: 4; fill: rgb(255,255,255); fill-rule: nonzero; opacity: 1;" vector-effect="non-scaling-stroke"  points="0.75,0.7 0.75,3.89 -0.75,3.89 -0.75,0.7 -3.09,-3.89 -1.44,-3.89 0,-0.75 1.44,-3.89 3.09,-3.89 0.75,0.7 0.75,0.7 " />
</g>
<g transform="matrix(1.92 0 0 1.92 754.51 537.79)"  >
<path style="stroke: none; stroke-width: 1; stroke-dasharray: none; stroke-linecap: butt; stroke-dashoffset: 0; stroke-linejoin: miter; stroke-miterlimit: 4; fill: rgb(255,255,255); fill-rule: nonzero; opacity: 1;" vector-effect="non-scaling-stroke"  transform=" translate(-299.9, -199.53)" d="M 290.88 186.15 C 291.07628410814976 186.15523323536522 291.2624411441734 186.23826248006145 291.3974824596578 186.3808060908505 C 291.5325237751422 186.52334970163955 291.605376611696 186.71371976688621 291.6 186.91 L 291.6 208.76999999999998 C 291.605376611696 208.96628023311376 291.5325237751422 209.15665029836043 291.3974824596578 209.29919390914947 C 291.2624411441734 209.44173751993853 291.07628410814976 209.52476676463476 290.88 209.52999999999997 L 288.93 209.52999999999997 C 288.51681664429077 209.51458599198645 288.18541400801354 209.18318335570925 288.17 208.76999999999998 L 288.17 186.91 C 288.18541400801354 186.49681664429073 288.51681664429077 186.16541400801353 288.93 186.15 L 290.88 186.15 M 316.46999999999997 206.75 C 314.35847392139743 206.877084781929 312.38325532858715 205.70254992338639 311.4865512737216 203.78666507287892 C 310.589847218856 201.87078022237145 310.9533084876405 199.60165780843943 312.4035589424267 198.0617011399552 C 313.8538093972128 196.52174447147098 316.09706299660576 196.02291192228668 318.0632562201385 196.80315363493105 C 320.0294494436713 197.58339534757545 321.32027859017796 199.48465302023428 321.32 201.6 C 321.3881860869085 202.93366880955824 320.9090924352338 204.23739225995817 319.99355468651396 205.2095612096297 C 319.0780169377942 206.18173015930122 317.8053578507784 206.73811528709837 316.46999999999997 206.75 M 316.46999999999997 193.25 C 313.0841930101754 193.2338021573293 310.0229433306869 195.26143199793458 308.71694610964937 198.38526339560863 C 307.41094888861176 201.50909479328269 308.11812235789415 205.1122098421015 310.50796435096066 207.51066905389303 C 312.89780634402723 209.9091282656846 316.49835274688974 210.62926573278042 319.6268645449382 209.33452047910166 C 322.75537634298666 208.03977522542291 324.7940113093494 204.98584335902436 324.78999999999996 201.6 C 324.8197226699942 199.38167897106055 323.95368063307694 197.2450909225295 322.387775682085 195.67353967964698 C 320.8218707310931 194.1019884367645 318.6884136398833 193.22826185550457 316.46999999999997 193.25 M 307.28999999999996 207.25 C 307.4412672896298 207.40550495421562 307.51059258489863 207.62309715099826 307.4771618341808 207.83744725854197 C 307.4437310834629 208.05179736608568 307.31143728691137 208.2379443834101 307.11999999999995 208.34 C 305.6409183835881 209.43860444220726 303.8423195572488 210.02174390543448 302 210 C 297.08 210 293.81 206.4 293.81 201.64 C 293.81 196.87999999999997 297.08 193.25 302 193.25 C 303.821447250605 193.21161574382467 305.6054682134571 193.7700002577882 307.08 194.84 C 307.2651230973678 194.94756735759378 307.3918194261415 195.1329303155445 307.42481320684334 195.34447867416205 C 307.45780698754515 195.55602703277958 307.39357455361096 195.77116787115264 307.25 195.93 L 306.32 197.22 C 306.19556600885966 197.4047389394103 305.99635416493254 197.52559187967853 305.77502566178833 197.55061162351222 C 305.5536971586441 197.57563136734592 305.332533941852 197.50229908611553 305.17 197.35 C 304.2609771930695 196.73478391412343 303.1969748403717 196.3882033432121 302.1 196.35 C 299.22 196.35 297.31 198.66 297.31 201.6 C 297.31 204.54 299.22 206.82 302.1 206.82 C 303.1727441807055 206.76788205280585 304.2105338871192 206.42195215066795 305.1 205.82 C 305.46000000000004 205.62 305.86 205.45999999999998 306.26000000000005 205.98999999999998 L 307.26000000000005 207.23999999999998 Z M 276.51 206.76 C 275.169172222117 206.74294830719694 273.89339609624403 206.17935727222783 272.9778456994478 205.19962396101698 C 272.06229530265153 204.21989064980613 271.58630361659266 202.9089095313884 271.65999999999997 201.57 C 271.5788733622602 199.78291048492986 272.48607872668236 198.0957335746664 274.0216351780022 197.17794446433956 C 275.55719162932206 196.2601553540127 277.47280837067785 196.2601553540127 279.0083648219977 197.17794446433956 C 280.54392127331755 198.0957335746664 281.4511266377397 199.78291048492986 281.36999999999995 201.57 C 281.4212536207251 202.90472972305542 280.93632820574646 204.20447869805713 280.023341407109 205.17945842746627 C 279.11035460847154 206.15443815687544 277.84521691967797 206.72358373096375 276.50999999999993 206.76 M 284 193.68 L 282 193.68 C 281.5863199274864 193.68523417816388 281.25071268502916 194.0164255358519 281.24 194.43 L 281.24 195.75 C 280.03871882815184 194.09988217719376 278.10016740006176 193.14931834952026 276.06 193.21 C 271.6290294580404 193.4753147869532 268.1714728307695 197.1460933913981 268.1714728307695 201.585 C 268.1714728307695 206.02390660860192 271.6290294580404 209.69468521304682 276.06 209.96 C 278.11407751107294 210.02296507097088 280.067071440537 209.06891631232463 281.28000000000003 207.41 L 281.28000000000003 208.79999999999998 C 281.3010776491131 209.2057274846193 281.6337529150392 209.52527083215364 282.04 209.52999999999997 L 284.04 209.52999999999997 C 284.2336080375829 209.52999999999997 284.41928639399913 209.45308950653322 284.55618795026624 209.31618795026617 C 284.6930895065333 209.1792863939991 284.77000000000004 208.99360803758285 284.77000000000004 208.79999999999998 L 284.77000000000004 194.43 C 284.772670159666 194.23373454646492 284.6972555324279 194.04444874792392 284.5603501437853 193.9037925267157 C 284.4234447551426 193.7631363055075 284.2362659378739 193.6826343185963 284.04 193.68 M 375.44000000000005 208.68 C 375.5384547515127 208.85640047310625 375.53021477573355 209.07300266876408 375.418642727794 209.24141330716347 C 375.3070706798544 209.40982394556286 375.11082821420604 209.50187449168234 374.9100000000001 209.48000000000002 L 372.7300000000001 209.48000000000002 C 372.34045407420643 209.49811534843712 371.9874759856714 209.25185156573826 371.87000000000006 208.88000000000002 L 367.87000000000006 198.05 L 363.7800000000001 208.88000000000002 C 363.6655498699373 209.25406492577693 363.31057864020886 209.5017192720991 362.9200000000001 209.48000000000002 L 360.9700000000001 209.48000000000002 C 360.5794213597913 209.5017192720991 360.22445013006285 209.25406492577693 360.11000000000007 208.88000000000002 L 356 198 L 351.93 208.9 C 351.81064477216603 209.26605014913662 351.4648844546967 209.51011625558556 351.08 209.5 L 349 209.5 C 348.6124609772983 209.51128254302895 348.26319591543444 209.26760924405414 348.14 208.9 L 344.14 198 L 339.97999999999996 208.9 C 339.8686957240641 209.2763438690262 339.51163148052035 209.52545845754506 339.11999999999995 209.5 L 337.16999999999996 209.5 C 336.78199873684054 209.52065898965452 336.43046493159136 209.27251748006688 336.31999999999994 208.9 L 332.21 198 L 328.15 208.9 C 328.0355498699372 209.2740649257769 327.68057864020875 209.5217192720991 327.28999999999996 209.5 L 325.17999999999995 209.5 C 324.979171785794 209.52187449168233 324.7829293201456 209.42982394556284 324.671357272206 209.26141330716345 C 324.5597852242665 209.09300266876406 324.55154524848734 208.87640047310623 324.65 208.7 L 330.16999999999996 194.26999999999998 C 330.28004145924797 193.89019900650618 330.63488745036767 193.63437980360592 331.03 193.64999999999998 L 333.4 193.64999999999998 C 333.7951125496323 193.63437980360592 334.149958540752 193.89019900650618 334.26 194.26999999999998 L 338.15999999999997 204.80999999999997 L 342.09 194.26999999999998 C 342.200041459248 193.89019900650618 342.5548874503677 193.63437980360592 342.95 193.64999999999998 L 345.28999999999996 193.64999999999998 C 345.68511254963227 193.63437980360592 346.03995854075197 193.89019900650618 346.15 194.26999999999998 L 350.04999999999995 204.80999999999997 L 353.93999999999994 194.26999999999998 C 354.05004145924795 193.89019900650618 354.40488745036765 193.63437980360592 354.79999999999995 193.64999999999998 L 357.15 193.64999999999998 C 357.54256086311096 193.63542144868254 357.893975034123 193.89174707930306 358 194.26999999999998 L 362 204.80999999999997 L 365.86 194.26999999999998 C 365.970041459248 193.89019900650618 366.3248874503677 193.63437980360592 366.72 193.64999999999998 L 369.09000000000003 193.64999999999998 C 369.4866228980696 193.63686054311992 369.8429692600993 193.89080852525603 369.96000000000004 194.26999999999998 L 375.47 208.7 M 241.70000000000002 204.82999999999998 L 240.18 200.82999999999998 C 240.01970605394882 200.42440831121073 239.61504818293216 200.16947385247022 239.18 200.2 L 237.18 200.2 C 236.92291779731886 200.15190872242087 236.66205254440672 200.26258457009988 236.51798436937352 200.48086968378652 C 236.37391619434035 200.69915479747314 236.37471044748006 200.98252591914635 236.52 201.2 L 238.52 206.39 C 237.8337781192603 206.56494627629502 237.12816759617616 206.65230757915305 236.42000000000002 206.64999999999998 C 231.53000000000003 206.64999999999998 228.07000000000002 202.80999999999997 228.07000000000002 197.79999999999998 C 228.07000000000002 192.79 231.53000000000003 188.95 236.42000000000002 188.95 C 241.31 188.95 244.78000000000003 192.78 244.78000000000003 197.79999999999998 C 244.83754937983394 200.4800540166473 243.69741759950634 203.04626702703095 241.67000000000002 204.79999999999998 M 236.42000000000002 185.65999999999997 C 229.7263088320508 185.65999999999997 224.3 191.08630883205075 224.3 197.77999999999997 C 224.3 204.4736911679492 229.7263088320508 209.89999999999998 236.42000000000002 209.89999999999998 C 237.5319406725216 209.89903519466017 238.6386411191241 209.7476627931492 239.71 209.45 L 241.01000000000002 212.82999999999998 C 241.1269018843526 213.2157070930519 241.49860387153183 213.4662927023862 241.9 213.42999999999998 L 244 213.42999999999998 C 244.5 213.42999999999998 244.86 213.09999999999997 244.63 212.42999999999998 L 242.94 208.01 C 247.43938392601208 205.0840152142289 249.49323007691254 199.55774199312205 247.99689428249536 194.40344069512193 C 246.50055848807818 189.24913939712184 241.80675207005 185.68176486730732 236.44 185.62 M 265.17 193.62 C 265.58586197800884 193.61996399932966 265.92452813340606 193.95417402110323 265.93 194.37 L 265.93 208.8 C 265.913883234024 209.20797633056353 265.5782944221814 209.5303182156229 265.17 209.53 L 263.2 209.53 C 262.81214080108754 209.52501279147123 262.49590867457965 209.21756489069963 262.47999999999996 208.83 L 262.47999999999996 207.51000000000002 C 261.2982564459862 209.1572149721252 259.35357717294204 210.08235365541807 257.33 209.96 C 253.2 209.96 250.64999999999998 207.21 250.64999999999998 203.15 L 250.64999999999998 194.4 C 250.6761216306459 193.9982080789127 251.00738368706914 193.68438086756436 251.40999999999997 193.68 L 253.40999999999997 193.68 C 253.80929469313378 193.67996253394895 254.13453021141672 194.0007427711595 254.13999999999996 194.4 L 254.13999999999996 202.59 C 254.13999999999996 205.23 255.52999999999994 206.98 258.27 206.98 C 259.4406971603908 207.0612992107798 260.5880401363101 206.6244087412512 261.40816008665087 205.78503714888365 C 262.22828003699163 204.9456655565161 262.6384360230301 203.7884960555902 262.53 202.61999999999998 L 262.53 194.4 C 262.54535507452186 194.00889176196475 262.85889176196474 193.6953550745219 263.25 193.68 L 265.2 193.68" stroke-linecap="round" />
</g>
</svg>