<svg id="Group_2346" data-name="Group 2346" xmlns="http://www.w3.org/2000/svg" width="202.068" height="52.962" viewBox="0 0 202.068 52.962">
  <path id="Path_96" data-name="Path 96" d="M2252.967,529.188l-.621,3.252,6.2-2.657a14.6,14.6,0,0,1-.945-2.579Z" transform="translate(-2239.447 -493.309)" fill="#fff"/>
  <line id="Line_10" data-name="Line 10" transform="translate(13.521 35.879)" fill="#fff"/>
  <path id="Path_97" data-name="Path 97" d="M2321.259,499.979v-.009l0,.006L2296.168,476l-8.437,8.789a41.266,41.266,0,0,0-13.136-2.433,33.252,33.252,0,0,0-16.676,4.772l-11.766-11.151,0-.013h-.013l-.009-.007v.009l-4.208.44-9.083,49.737,4.228.44,0-.015,19.167-8.384c.031.027.06.056.09.084,4.56,4.023,11.406,6.585,19.061,6.585a31.063,31.063,0,0,0,14.27-3.335l7.706,7.4,23.893-24.884v-4.048l0,0ZM2274.393,483.3A41.933,41.933,0,0,1,2287,485.543l-.152.158-3.729,3.883-.012.013a24.381,24.381,0,0,0-7.718-1.225,22.513,22.513,0,0,0-12.442,3.516l-.048-.046-3.912-3.707-.349-.33A30.967,30.967,0,0,1,2274.393,483.3Zm5.255,9.9-7.3,7.6-6.41-6.074a23.8,23.8,0,0,1,9.447-1.891A25.059,25.059,0,0,1,2279.648,493.2Zm-42.389,32.322,8.746-48.722,12.485,11.833,3.911,3.706,2.989,2.833,7.1,6.766v3.085l3.016,2.9-9.422,4.289a17.058,17.058,0,0,1-5.428-3.552c-.033-.033-.06-.069-.093-.1l7.23-3.378-17-15.834-.335-.337-.406,2.193-4.016,20.93-.622,3.252,1.064-.456.005-.026,5.462-2.34a17.516,17.516,0,0,0,3.6,4.968Zm39.773-16.131,4.072,3.909a24.705,24.705,0,0,1-5.87.7,24.1,24.1,0,0,1-7.182-1.066c-.3-.094-.6-.2-.891-.3l9.022-4.057Zm-17.975-2.692c-.043-.065-.1-.128-.14-.2a10.048,10.048,0,0,1-1.276-2.957c-.026-.106-.037-.214-.059-.32a10.561,10.561,0,0,1,1.35-2.913L2263.67,505Zm-9.095-2.288c.006.028.014.056.019.085-.01.113-.019.219-.019.3a30.743,30.743,0,0,0,1.031,5.179v0l-3.9,1.666,3.716-19.367,1.526,1.51a14.94,14.94,0,0,0-2.575,8.3A14.228,14.228,0,0,0,2249.962,504.413Zm39.16,12.561a27.067,27.067,0,0,1-2.884,1.255,31.67,31.67,0,0,1-11.005,1.911,30.365,30.365,0,0,1-15.011-3.771,21.529,21.529,0,0,1-5.982-4.917,16.908,16.908,0,0,1-1.581-2.251,14.325,14.325,0,0,1-1.812-4.936,13.213,13.213,0,0,1-.186-2.176,13.98,13.98,0,0,1,2.24-7.524l3.988,4.037a9.795,9.795,0,0,0-.121,5.156,10.946,10.946,0,0,0,1.389,3.223,13.2,13.2,0,0,0,1.859,2.312,18.927,18.927,0,0,0,7.767,4.5,25.009,25.009,0,0,0,7.449,1.106,25.525,25.525,0,0,0,6.138-.74,23.03,23.03,0,0,0,3.238-1.063,18.1,18.1,0,0,0,5.976-3.938,11.694,11.694,0,0,0,3.108-5.4,9.929,9.929,0,0,0,.291-2.353,12.06,12.06,0,0,0-2.2-6.658l3.394-3.535a16.167,16.167,0,0,1,4.626,10.877,13.415,13.415,0,0,1-.185,2.176,15.821,15.821,0,0,1-4.913,8.817A23.176,23.176,0,0,1,2289.123,516.974Zm.982-8.616-5.917-5.764,5.012-5.221a12.255,12.255,0,0,1,3.8,5.214,9.1,9.1,0,0,1-.176.96A10.731,10.731,0,0,1,2290.1,508.358Zm10.423-4.132a14.232,14.232,0,0,0,.174-2.135,17.094,17.094,0,0,0-4.937-11.553l.806-.84,12.538,12.039-10.382,10.809a22.319,22.319,0,0,0,1.816-7.993C2300.542,504.456,2300.536,504.345,2300.528,504.225Zm-3.162,20.626-5.1-4.893a20.429,20.429,0,0,0,5-4.77c.018-.024.034-.052.052-.077l12.393-12.868.367-.4,1.618-1.684-15.135-14.53-3.4,3.54-3.752,3.91-2.556,2.663-4.82,5.019,0,0-.417.435,1.406,1.346,6.522,6.359a17.507,17.507,0,0,1-5.288,3.36h0l-4.3-4.131-4.225-4.059-2.876-2.725,6.832-7.116,3.431-3.575,3.729-3.883,9.318-9.7,24.531,23.479Z" transform="translate(-2232.841 -475.954)" fill="#fff"/>
  <g id="Group_594" data-name="Group 594" transform="translate(87.584 11.773)">
    <path id="Path_98" data-name="Path 98" d="M2371.914,494.6h19.745l-1.859,7.6h-9.464l-.936,3.995h9.872l-1.719,7.044h-9.744l-2.339,10.008h-10.2Z" transform="translate(-2365.27 -494.041)" fill="#fff"/>
    <path id="Path_99" data-name="Path 99" d="M2405.828,494.6h10.2l-6.645,28.65h-10.2Z" transform="translate(-2376.754 -494.041)" fill="#fff"/>
    <path id="Path_100" data-name="Path 100" d="M2425.308,494.485l.655-.086c3.275-.387,7.346-.644,9.592-.644a23.672,23.672,0,0,1,8.843,1.331,7.1,7.1,0,0,1,4.491,6.745,10.654,10.654,0,0,1-2.574,7.044,10.028,10.028,0,0,1-5.475,3.308l-.655.215a5.891,5.891,0,0,1,.516.43c.795.9,3.181,5.542,5.194,10.137h-11.229c-1.45-4.081-1.872-5.154-3.791-9.793l-2.246,9.793h-9.919Zm7.532,13.488c3.276,0,5.568-1.933,5.568-4.682,0-1.461-1.076-2.191-3.181-2.191a6.953,6.953,0,0,0-1.591.172l-1.544,6.614A3.9,3.9,0,0,0,2432.841,507.973Z" transform="translate(-2383.367 -493.755)" fill="#fff"/>
    <path id="Path_101" data-name="Path 101" d="M2499.679,494.6h24.748l-1.729,8.294h-7.345l-4.866,20.357h-10.2l4.866-20.357h-7.962Z" transform="translate(-2409.943 -494.041)" fill="#fff"/>
    <path id="Path_102" data-name="Path 102" d="M2523.242,530.18a2.486,2.486,0,1,1,0,4.972,2.486,2.486,0,0,1,0-4.972Zm0,4.664a2.178,2.178,0,1,0-2.173-2.183A2.173,2.173,0,0,0,2523.242,534.844Zm-.962-3.452c.126-.009.145-.019.395-.038s.355-.029.462-.029c.818,0,1.221.317,1.221.923a.683.683,0,0,1-.481.712l-.038.009a.127.127,0,0,1,.048.048,7.413,7.413,0,0,1,.615.9h-.933c-.193-.356-.25-.452-.491-.856v.856h-.8Zm.9,1.192c.221,0,.346-.106.346-.308s-.116-.3-.336-.3a.413.413,0,0,0-.106.009v.587A.341.341,0,0,0,2523.175,532.584Z" transform="translate(-2417.924 -506.09)" fill="#fff"/>
    <g id="Group_593" data-name="Group 593" transform="translate(63.532)">
      <path id="Path_103" data-name="Path 103" d="M2461.331,522.235a32.061,32.061,0,0,0,8.934,1.33,15.668,15.668,0,0,0,9.638-2.792c2.9-2.062,4.772-5.24,4.772-8.118a6.355,6.355,0,0,0-2.339-4.941,21.83,21.83,0,0,0-4.866-2.835l-2.012-.944c-.655-.344-.983-.688-.983-1.074,0-1.031,1.311-1.8,3.089-1.8,1.33,0,2.915.387,5.944,1.378l2.091-7.756a25.29,25.29,0,0,0-6.679-.924c-8.328,0-14.739,4.553-14.739,10.438,0,3.093,2.059,5.284,7.205,7.689,2.433,1.116,2.854,1.418,2.854,2.191,0,1.159-1.263,1.89-3.322,1.89a22.712,22.712,0,0,1-7.346-1.718h0Z" transform="translate(-2461.331 -493.755)" fill="#fff"/>
    </g>
  </g>
</svg>
